<svg width="30" height="30" viewBox="0 0 30 30" fill="none" xmlns="http://www.w3.org/2000/svg">
<g clip-path="url(#clip0_772_104)">
<path d="M26.25 0H12.5C11.5054 0 10.5516 0.395088 9.84835 1.09835C9.14509 1.80161 8.75 2.75544 8.75 3.75V10C8.75 10.3315 8.8817 10.6495 9.11612 10.8839C9.35054 11.1183 9.66848 11.25 10 11.25C10.3315 11.25 10.6495 11.1183 10.8839 10.8839C11.1183 10.6495 11.25 10.3315 11.25 10V3.75C11.25 3.41848 11.3817 3.10054 11.6161 2.86612C11.8505 2.6317 12.1685 2.5 12.5 2.5H26.25C26.5815 2.5 26.8995 2.6317 27.1339 2.86612C27.3683 3.10054 27.5 3.41848 27.5 3.75V26.25C27.5 26.5815 27.3683 26.8995 27.1339 27.1339C26.8995 27.3683 26.5815 27.5 26.25 27.5H12.5C12.1685 27.5 11.8505 27.3683 11.6161 27.1339C11.3817 26.8995 11.25 26.5815 11.25 26.25V20C11.25 19.6685 11.1183 19.3505 10.8839 19.1161C10.6495 18.8817 10.3315 18.75 10 18.75C9.66848 18.75 9.35054 18.8817 9.11612 19.1161C8.8817 19.3505 8.75 19.6685 8.75 20V26.25C8.75 27.2446 9.14509 28.1984 9.84835 28.9017C10.5516 29.6049 11.5054 30 12.5 30H26.25C27.2446 30 28.1984 29.6049 28.9017 28.9017C29.6049 28.1984 30 27.2446 30 26.25V3.75C30 2.75544 29.6049 1.80161 28.9017 1.09835C28.1984 0.395088 27.2446 0 26.25 0Z" fill="white"/>
<path d="M5.88323 10.366C5.64882 10.1316 5.33094 10 4.99948 10C4.66803 10 4.35014 10.1316 4.11573 10.366L0.365735 14.116C0.136176 14.3529 0.0078125 14.6698 0.0078125 14.9997C0.0078125 15.3296 0.136176 15.6466 0.365735 15.8835L4.11573 19.6335C4.23104 19.7529 4.36897 19.8481 4.52148 19.9136C4.67398 19.9791 4.83801 20.0136 5.00398 20.015C5.16996 20.0165 5.33456 19.9849 5.48818 19.922C5.6418 19.8592 5.78136 19.7663 5.89873 19.649C6.01609 19.5316 6.10891 19.392 6.17176 19.2384C6.23461 19.0848 6.26624 18.9202 6.2648 18.7542C6.26336 18.5883 6.22887 18.4242 6.16336 18.2717C6.09785 18.1192 6.00262 17.9813 5.88323 17.866L4.26698 16.2497H19.9995C20.331 16.2497 20.6489 16.118 20.8834 15.8836C21.1178 15.6492 21.2495 15.3313 21.2495 14.9997C21.2495 14.6682 21.1178 14.3503 20.8834 14.1158C20.6489 13.8814 20.331 13.7497 19.9995 13.7497H4.26698L5.88323 12.1335C6.11757 11.8991 6.24922 11.5812 6.24922 11.2497C6.24922 10.9183 6.11757 10.6004 5.88323 10.366Z" fill="white"/>
</g>
<defs>
<clipPath id="clip0_772_104">
<rect width="30" height="30" fill="white"/>
</clipPath>
</defs>
</svg>
