<svg width="30" height="30" viewBox="0 0 30 30" fill="none" xmlns="http://www.w3.org/2000/svg">
<path fill-rule="evenodd" clip-rule="evenodd" d="M15.5951 0.0120612C7.31685 -0.316982 0.341104 6.12679 0.0120588 14.405C-0.316986 22.6832 6.12818 29.6589 14.405 29.9879C22.6832 30.317 29.659 23.8732 29.988 15.595C30.3157 7.31683 23.8719 0.339734 15.5951 0.0120612ZM21.9264 21.9867C21.74 22.3157 21.3767 22.4803 21.0229 22.4309C20.9146 22.4158 20.8063 22.3802 20.7049 22.3226C18.7224 21.1942 16.5616 20.4594 14.283 20.1386C12.0044 19.8177 9.72436 19.9288 7.50742 20.4676C7.0262 20.5841 6.54223 20.2894 6.42569 19.8082C6.30915 19.3269 6.60392 18.843 7.08515 18.7264C9.52282 18.1341 12.029 18.0121 14.5325 18.3645C17.036 18.7168 19.4106 19.5243 21.5919 20.7651C22.021 21.0105 22.1719 21.5562 21.9278 21.9867H21.9264ZM23.898 18.0491C23.5922 18.614 22.8848 18.8251 22.3199 18.5194C20.0002 17.2649 17.4884 16.4409 14.8547 16.0708C12.221 15.7006 9.58041 15.8007 7.00426 16.3669C6.86442 16.3971 6.72594 16.4025 6.59158 16.3834C6.12406 16.3175 5.72373 15.9693 5.61679 15.4799C5.47831 14.8519 5.87591 14.2309 6.50384 14.0924C9.35145 13.4658 12.2703 13.3548 15.1797 13.7633C18.0876 14.1719 20.8639 15.0823 23.4277 16.4697C23.9939 16.7755 24.2037 17.4815 23.898 18.0478V18.0491ZM26.0834 13.6098C25.7955 14.1637 25.1963 14.4502 24.6123 14.368C24.4546 14.346 24.2997 14.2967 24.1502 14.2199C21.4493 12.8146 18.54 11.8864 15.5032 11.46C12.4664 11.0337 9.41314 11.1241 6.4298 11.7301C5.6538 11.8878 4.89837 11.386 4.74071 10.6114C4.58304 9.83539 5.08483 9.07996 5.85946 8.92229C9.16362 8.25186 12.5418 8.15178 15.9022 8.62341C19.2625 9.09504 22.4817 10.1233 25.4733 11.6794C26.1752 12.0441 26.4481 12.9092 26.0834 13.6112V13.6098Z" fill="white"/>
</svg>
